<?xml version="1.0" standalone="no"?>
<!DOCTYPE svg PUBLIC "-//W3C//DTD SVG 20010904//EN"
 "http://www.w3.org/TR/2001/REC-SVG-20010904/DTD/svg10.dtd">
<svg version="1.0" xmlns="http://www.w3.org/2000/svg"
 width="1200.000000pt" height="1200.000000pt" viewBox="0 0 1200.000000 1200.000000"
 preserveAspectRatio="xMidYMid meet">

<g transform="translate(0.000000,1200.000000) scale(0.100000,-0.100000)"
fill="#000000" stroke="none">
<path d="M8740 9751 c-107 -43 -334 -138 -505 -211 -750 -320 -1081 -434
-1450 -501 -164 -30 -478 -33 -605 -6 -138 30 -253 73 -403 151 -78 41 -190
95 -249 120 l-108 47 -205 -138 c-113 -75 -202 -140 -197 -144 4 -3 45 -19 92
-35 130 -44 627 -294 646 -325 3 -6 -590 -9 -1469 -9 -811 0 -1482 -2 -1491
-6 -32 -12 -36 -43 -36 -254 0 -211 0 -211 25 -235 l24 -25 2676 0 2677 0 29
29 29 30 -2 -1637 -3 -1637 -23 -36 c-46 -75 111 -69 -1861 -69 l-1771 0 0
205 c0 156 3 206 13 209 6 2 52 11 101 21 49 9 145 35 213 56 l124 40 33 72
c39 85 62 145 55 150 -2 2 -39 17 -81 34 -85 34 -78 37 -122 -39 -15 -27 -33
-48 -41 -48 -7 0 -81 5 -165 11 -133 9 -155 13 -186 34 -54 37 -135 63 -231
76 -75 10 -96 10 -144 -4 -30 -9 -63 -25 -72 -35 -58 -64 -107 -365 -107 -654
l0 -128 -540 0 c-297 0 -540 -3 -540 -8 0 -4 7 -18 16 -30 28 -40 66 -52 169
-52 71 0 95 -3 95 -13 0 -20 -140 -257 -207 -349 -104 -144 -228 -280 -404
-443 -96 -88 -218 -203 -273 -255 -100 -96 -220 -229 -214 -236 2 -2 37 7 78
20 74 23 76 25 128 97 29 41 62 75 73 77 28 5 24 -17 -16 -72 -19 -27 -33 -51
-31 -53 3 -3 98 13 194 33 12 2 22 2 22 -1 0 -3 -14 -32 -30 -65 -96 -191
-111 -331 -50 -493 40 -106 62 -109 110 -18 71 132 189 241 306 281 116 40
268 16 311 -49 24 -35 30 -110 17 -192 l-6 -36 -107 -17 c-58 -9 -139 -24
-178 -33 -68 -16 -73 -19 -73 -43 0 -15 -7 -50 -16 -80 -15 -51 -36 -89 -133
-242 -43 -67 -65 -153 -65 -249 0 -42 38 -106 134 -224 55 -68 65 -87 70 -129
l5 -49 76 149 c42 82 107 200 143 263 36 63 65 115 63 117 -2 2 -28 -1 -58 -5
-29 -5 -55 -8 -57 -6 -7 6 100 253 139 321 160 280 388 395 547 277 47 -35 72
-91 72 -161 0 -82 -35 -148 -137 -253 l-82 -85 -113 -18 c-62 -9 -143 -24
-180 -33 l-68 -16 -51 -81 c-109 -172 -265 -463 -254 -475 4 -3 138 -6 298 -6
360 0 530 22 882 112 299 76 479 149 820 333 563 303 847 412 1240 476 138 23
494 26 630 6 352 -53 636 -146 1055 -347 358 -172 564 -249 840 -314 576 -136
1142 -94 1699 126 239 94 704 327 861 431 98 65 233 194 279 266 17 27 29 51
27 54 -2 2 -41 -8 -86 -22 -135 -43 -151 -33 -69 46 35 35 49 56 47 71 -2 12
-96 204 -209 427 -114 223 -215 431 -225 462 -9 31 -20 55 -24 53 -18 -11 -56
-187 -120 -563 l-71 -414 21 -34 c12 -18 20 -44 18 -56 -3 -22 -6 -23 -123
-23 -66 0 -133 4 -149 8 l-29 8 23 24 c12 13 44 29 71 36 26 7 51 19 54 27 3
8 -2 220 -10 471 -15 452 -13 528 15 656 15 68 58 198 88 265 23 52 25 64 23
209 l-2 154 -84 91 c-104 112 -240 286 -302 385 -26 41 -56 84 -67 96 -12 12
-40 45 -64 73 l-43 52 -112 0 c-144 1 -188 18 -218 85 -19 43 -20 63 -17 348
3 294 4 303 25 333 29 40 79 64 135 64 l45 0 6 287 c4 157 7 373 7 480 0 193
0 194 25 218 l24 25 268 0 268 0 100 126 c54 70 169 208 255 307 331 385 372
440 460 615 124 247 159 500 101 725 -25 96 -70 199 -85 194 -6 -2 -42 -14
-80 -27 -38 -12 -90 -36 -117 -52 -26 -17 -100 -45 -163 -64 -64 -18 -128 -40
-144 -48 -15 -7 -85 -33 -157 -56 -71 -23 -138 -46 -148 -51 -9 -6 -76 -27
-148 -48 -71 -22 -147 -50 -169 -65 -21 -14 -92 -41 -157 -59 -66 -19 -137
-44 -159 -55 -21 -11 -92 -36 -157 -56 -65 -20 -125 -40 -134 -43 -11 -4 -4
11 18 43 69 101 126 265 144 416 l6 57 -50 -14 c-28 -8 -74 -22 -103 -30 -29
-8 -70 -27 -91 -41 -22 -14 -58 -31 -81 -38 l-41 -12 -5 -108 c-7 -157 18
-146 -352 -146 -292 0 -301 -1 -390 -26 -49 -14 -112 -39 -138 -56 -43 -27
-315 -114 -308 -99 2 3 29 60 62 126 32 66 84 176 116 245 157 343 264 530
392 688 33 39 58 72 56 72 -2 -1 -91 -36 -198 -79z m1964 -1117 c13 -13 16
-45 16 -194 0 -173 -1 -179 -22 -194 -34 -24 -503 -24 -530 1 -16 14 -18 34
-18 198 0 127 4 185 12 193 9 9 83 12 269 12 221 0 260 -2 273 -16z m-7474
-150 c20 -23 16 -75 -5 -90 -62 -45 -139 32 -88 88 20 22 76 24 93 2z m222 -1
c37 -33 10 -103 -40 -103 -33 0 -45 8 -61 37 -12 24 -1 67 21 76 27 11 62 7
80 -10z m222 1 c21 -20 20 -63 -1 -86 -35 -39 -103 -11 -103 43 0 36 24 59 60
59 16 0 36 -7 44 -16z m5839 -232 c26 -13 61 -40 77 -60 64 -77 61 46 58
-1998 l-3 -1860 -26 -49 c-32 -62 -93 -110 -159 -124 -36 -8 -729 -11 -2360
-11 -1271 0 -2310 2 -2310 4 0 2 -18 82 -41 176 -28 121 -37 175 -29 180 7 4
8 22 4 48 l-7 42 -64 0 c-57 0 -64 -2 -59 -17 9 -31 104 -436 110 -475 5 -26
-18 -180 -74 -499 -44 -254 -80 -469 -80 -478 0 -11 15 -21 45 -30 42 -12 74
-36 63 -46 -11 -11 -223 -16 -238 -6 -13 9 -13 15 -1 43 10 26 15 138 18 498
l5 465 -50 100 c-27 55 -52 107 -55 115 -3 8 -6 -44 -6 -116 l-1 -131 -166
-424 c-92 -233 -170 -434 -175 -446 -7 -19 -1 -27 41 -57 28 -20 50 -41 50
-47 0 -13 -78 -6 -183 18 -62 14 -67 17 -61 36 3 12 15 31 25 43 11 11 19 27
19 36 0 9 41 208 90 443 89 422 95 459 84 502 -6 21 -9 22 -257 25 -217 3
-258 6 -295 22 -51 22 -118 95 -132 145 -5 20 -10 126 -10 237 l0 201 113 6
c61 4 194 7 294 7 l182 0 3 -57 c3 -58 3 -58 43 -72 103 -36 444 -19 550 28
43 19 43 20 38 60 l-6 41 1815 0 1815 0 34 23 c19 12 42 38 51 57 17 33 18
136 18 1733 l0 1698 578 -3 577 -3 48 -23z m297 -4122 c0 -23 10 -26 28 -8 10
10 17 7 34 -10 17 -17 20 -24 10 -34 -18 -18 -15 -28 8 -28 16 0 20 -7 20 -30
0 -23 -4 -30 -20 -30 -23 0 -26 -10 -8 -28 10 -10 7 -17 -10 -34 -17 -17 -24
-20 -34 -10 -18 18 -28 15 -28 -8 0 -16 -7 -20 -30 -20 -23 0 -30 4 -30 20 0
23 -10 26 -28 8 -10 -10 -17 -7 -34 10 -17 17 -20 24 -10 34 18 18 15 28 -8
28 -16 0 -20 7 -20 30 0 23 4 30 20 30 23 0 26 10 8 28 -10 10 -7 17 10 34 17
17 24 20 34 10 18 -18 28 -15 28 8 0 16 7 20 30 20 23 0 30 -4 30 -20z m294
-312 c9 -12 16 -39 16 -59 0 -48 18 -53 52 -17 14 15 37 28 50 28 29 0 108
-77 108 -105 0 -10 -14 -33 -31 -51 -37 -39 -31 -54 22 -54 57 0 79 -26 79
-93 0 -66 -14 -86 -65 -93 -69 -10 -70 -11 -36 -49 17 -20 31 -46 31 -58 0
-28 -78 -107 -105 -107 -10 0 -33 14 -51 31 -39 37 -54 31 -54 -22 0 -57 -26
-79 -95 -79 -69 0 -95 22 -95 79 0 53 -15 59 -54 22 -18 -17 -41 -31 -51 -31
-27 0 -105 79 -105 107 0 12 13 38 30 56 16 19 27 37 23 41 -3 3 -24 6 -45 6
-56 0 -78 26 -78 95 0 69 22 95 79 95 53 0 59 15 22 54 -17 18 -31 41 -31 52
0 26 80 104 107 104 12 0 35 -11 51 -25 41 -35 52 -32 52 15 0 60 25 80 99 80
51 0 62 -3 75 -22z m-723 -58 c12 -7 19 -21 19 -40 0 -33 19 -40 40 -15 18 22
40 18 72 -12 34 -32 35 -49 7 -80 -24 -24 -19 -29 31 -35 23 -3 25 -7 25 -58
0 -55 0 -55 -32 -58 -35 -3 -43 -21 -18 -42 23 -19 18 -46 -16 -74 -37 -32
-46 -32 -76 -5 -24 24 -29 19 -35 -31 -3 -23 -7 -25 -58 -25 -51 0 -55 2 -58
25 -6 50 -11 55 -35 31 -30 -27 -39 -27 -76 5 -34 28 -39 55 -16 74 25 21 17
39 -17 42 -33 3 -33 3 -33 58 0 51 2 55 25 58 50 6 55 11 31 35 -28 30 -27 45
6 79 30 31 54 36 73 13 21 -25 40 -18 40 15 0 44 53 65 101 40z m-1890 -179
c155 -59 250 -176 273 -333 l7 -48 -1267 0 -1267 0 6 57 c13 123 106 250 227
307 61 29 75 31 215 37 83 4 510 5 950 4 794 -2 800 -2 856 -24z m1780 -720
c101 -73 220 -244 339 -486 37 -77 70 -149 72 -160 2 -13 19 14 50 77 26 54
70 133 98 176 66 104 170 203 170 162 0 -5 -4 -10 -10 -10 -20 0 -84 -66 -130
-135 -26 -39 -73 -121 -104 -183 -31 -61 -62 -112 -69 -112 -7 0 -39 56 -71
124 -120 256 -268 474 -365 536 -47 31 -63 50 -43 50 5 0 33 -17 63 -39z"/>
<path d="M9747 4052 c-22 -24 -21 -45 1 -65 24 -22 45 -21 65 1 22 24 21 45
-1 65 -24 22 -45 21 -65 -1z"/>
<path d="M9963 3591 c-91 -42 -105 -162 -28 -230 31 -27 43 -31 92 -31 51 0
58 3 94 39 38 38 45 60 40 120 -4 45 -31 82 -74 102 -53 23 -71 23 -124 0z"/>
<path d="M9279 3581 c-51 -51 -28 -128 44 -146 51 -13 107 37 107 96 0 32 -53
79 -90 79 -22 0 -41 -9 -61 -29z"/>
<path d="M11100 6741 l0 -71 48 0 c57 0 104 -26 129 -72 17 -30 18 -68 18
-478 0 -425 -1 -446 -20 -478 -10 -17 -37 -41 -60 -52 l-40 -20 55 0 c79 0
138 32 168 90 22 44 22 46 22 530 0 484 0 486 -22 530 -34 67 -72 84 -195 88
l-103 4 0 -71z"/>
<path d="M4198 6063 c-51 -19 -73 -33 -88 -58 -40 -65 -18 -187 44 -244 20
-19 38 -25 74 -25 44 -1 47 1 50 26 2 18 -6 37 -27 61 -27 30 -29 36 -16 47
13 11 20 9 40 -10 31 -29 42 -20 25 21 -15 36 -4 49 43 49 15 0 43 7 62 14 50
21 49 65 -1 112 -31 30 -42 34 -87 33 -30 0 -80 -11 -119 -26z"/>
<path d="M10671 6047 c-24 -12 -57 -34 -73 -49 -25 -24 -29 -32 -23 -60 11
-50 42 -106 66 -119 14 -7 41 -9 70 -5 l49 7 0 -31 c0 -34 15 -41 23 -10 3 11
10 20 16 20 19 0 23 -45 7 -75 -20 -39 -20 -89 0 -106 24 -20 62 8 119 91 45
66 49 78 48 126 -2 90 -73 195 -149 224 -42 16 -107 11 -153 -13z"/>
<path d="M5270 5880 c0 -19 -6 -33 -16 -37 -12 -4 -14 -14 -10 -36 5 -24 -7
-55 -65 -163 -40 -73 -82 -140 -95 -149 -41 -27 -27 -35 60 -35 l84 0 61 186
61 187 -17 36 c-12 23 -26 37 -40 39 -20 3 -23 -1 -23 -28z"/>
<path d="M11220 4211 c0 -80 22 -175 134 -575 59 -209 105 -385 102 -392 -7
-17 52 -70 64 -58 24 24 42 158 37 274 -9 175 -58 332 -167 537 -52 96 -156
263 -165 263 -3 0 -5 -22 -5 -49z"/>
<path d="M1873 2853 c6 -245 4 -239 130 -300 87 -43 240 -132 339 -197 l28
-18 -22 48 c-16 37 -23 75 -26 158 -5 107 -5 109 -54 202 -38 71 -54 94 -66
90 -10 -2 -35 -7 -57 -11 -39 -5 -41 -4 -88 55 -45 57 -156 150 -179 150 -7 0
-9 -62 -5 -177z"/>
<path d="M2647 2905 c-43 -7 -81 -15 -83 -17 -2 -3 3 -24 11 -49 8 -24 21 -84
28 -133 l12 -90 44 67 c72 111 115 239 79 236 -7 -1 -48 -7 -91 -14z"/>
<path d="M2340 2858 c-30 -6 -56 -11 -58 -13 -2 -2 11 -32 29 -66 l32 -64 12
36 c7 19 22 54 34 77 12 23 18 41 14 41 -5 -1 -33 -6 -63 -11z"/>
<path d="M1920 2523 c0 -3 12 -32 26 -63 l26 -58 46 15 c26 8 54 17 62 20 10
3 -7 17 -45 38 -63 36 -115 58 -115 48z"/>
<path d="M2230 2311 c-11 -22 -20 -42 -20 -45 0 -10 66 -17 125 -14 l60 3 -60
41 c-33 22 -65 44 -72 48 -8 4 -20 -8 -33 -33z"/>
<path d="M2157 2206 c-14 -36 209 -164 368 -210 44 -13 116 -30 160 -39 l80
-15 -80 74 c-44 41 -113 100 -153 132 l-73 57 -112 0 c-61 0 -128 4 -148 8
-29 7 -37 6 -42 -7z"/>
<path d="M2580 2176 c0 -2 16 -16 37 -32 l36 -27 -23 31 c-20 26 -50 43 -50
28z"/>
</g>
</svg>
